<?xml version="1.0" encoding="UTF-8"?>
<svg version="1.1" xmlns="http://www.w3.org/2000/svg" width="16" height="32">
<path d="M0,0 L7,0 L7,1 L8,1 L8,2 L9,2 L9,3 L10,3 L10,10 L9,10 L9,11 L8,11 L8,12 L7,12 L7,13 L0,13 L0,12 L-1,12 L-1,11 L-2,11 L-2,10 L-3,10 L-3,3 L-2,3 L-2,2 L-1,2 L-1,1 L0,1 Z M1,4 L1,9 L6,9 L6,4 Z " fill="#4C5C4A" transform="translate(5,4)"/>
<path d="M0,0 L13,0 L13,4 L12,4 L12,5 L11,5 L11,6 L10,6 L10,7 L9,7 L9,8 L8,8 L8,9 L7,9 L7,10 L6,10 L6,9 L5,9 L5,8 L4,8 L4,7 L3,7 L3,6 L2,6 L2,5 L1,5 L1,4 L0,4 Z " fill="#1D322D" transform="translate(2,18)"/>
<path d="M0,0 L7,0 L7,1 L8,1 L8,8 L9,8 L9,9 L8,9 L8,10 L7,10 L7,9 L1,9 L1,7 L0,7 L0,2 L-1,2 L-1,1 L0,1 Z M1,2 L1,7 L6,7 L6,2 Z " fill="#0D2423" transform="translate(5,6)"/>
<path d="M0,0 L1,0 L1,6 L2,6 L2,7 L1,7 L1,8 L0,8 L0,7 L-6,7 L-6,5 L0,5 Z " fill="#1E3D39" transform="translate(12,8)"/>
<path d="M0,0 L3,0 L3,4 L0,4 L0,2 L-5,2 L-5,1 L0,1 Z " fill="#3D5346" transform="translate(12,18)"/>
<path d="M0,0 L2,0 L2,2 L1,2 L1,3 L0,3 L0,4 L-1,4 L-1,5 L-2,5 L-2,4 L-3,4 L-3,1 L-2,1 L-2,2 L-1,2 L-1,1 L0,1 Z " fill="#586E59" transform="translate(10,23)"/>
</svg>
